# WaveFront *.obj file (generated by CINEMA 4D)

mtllib ./halls.mtl

v 728.01373291015625 0.21382176876068 926.8955078125
v 439.96548461914062 0.21382176876068 926.8955078125
v 728.01373291015625 631.18682861328125 926.8955078125
v 439.96548461914062 631.18682861328125 926.8955078125
v 463.34356689453125 -0.60534816980362 -772.41510009765625
v 463.34356689453125 -0.60534816980362 933.80987548828125
v 724.70709228515625 -0.60534816980362 -772.41510009765625
v 724.70709228515625 -0.60534816980362 933.80987548828125
v 463.34356689453125 630.56787109375 -772.41510009765625
v 463.34356689453125 630.56787109375 933.80987548828125
v 724.70709228515625 630.56787109375 -772.41510009765625
v 724.70709228515625 630.56787109375 933.80987548828125
v 722.3427734375 0.21382176876068 -772.41510009765625
v 722.3427734375 0.21382176876068 933.94189453125
v 722.3427734375 631.18682861328125 -772.41510009765625
v 722.3427734375 631.18682861328125 933.94189453125
v -723.1143798828125 0.21382176876068 926.8955078125
v -435.06613159179688 0.21382176876068 926.8955078125
v -723.1143798828125 631.18682861328125 926.8955078125
v -435.06613159179688 631.18682861328125 926.8955078125
v -458.4442138671875 630.56787109375 -772.41510009765625
v -458.4442138671875 630.56787109375 933.80987548828125
v -719.8077392578125 630.56787109375 -772.41510009765625
v -719.8077392578125 630.56787109375 933.80987548828125
v -458.4442138671875 -0.60534816980362 -772.41510009765625
v -458.4442138671875 -0.60534816980362 933.80987548828125
v -719.8077392578125 -0.60534816980362 -772.41510009765625
v -719.8077392578125 -0.60534816980362 933.80987548828125
v -717.44342041015625 0.21382176876068 -772.41510009765625
v -717.44342041015625 0.21382176876068 933.94189453125
v -717.44342041015625 631.18682861328125 -772.41510009765625
v -717.44342041015625 631.18682861328125 933.94189453125
v -719.0682373046875 7.21472597122192 603.0887451171875
v -717.44342041015625 7.21472597122192 876.35565185546875
v -719.0682373046875 631.0130615234375 603.0887451171875
v -717.44342041015625 631.0130615234375 876.35565185546875
v -1663.443359375 7.21472597122192 603.0887451171875
v -1663.443359375 7.21472597122192 876.35565185546875
v -1663.443359375 631.0130615234375 603.0887451171875
v -1663.443359375 631.0130615234375 876.35565185546875
v -717.44342041015625 0.21472619473934 603.0887451171875
v -717.44342041015625 0.21472619473934 876.35565185546875
v -1663.443359375 0.21472619473934 603.0887451171875
v -1663.443359375 0.21472619473934 876.35565185546875
v -719.0682373046875 7.21472597122192 96.20060729980469
v -719.0682373046875 631.0130615234375 96.20060729980469
v -1663.443359375 7.21472597122192 96.20060729980469
v -1663.443359375 631.0130615234375 96.20060729980469
v -717.44342041015625 0.21472619473934 96.20060729980469
v -1663.443359375 0.21472619473934 96.20060729980469
# 50 vertices

vn 0 0 -1
vn 0 1 0
vn 0 -1 0
vn -1 0 0
vn 1 0 0
vn 0.97189104557037 0.23543077707291 -0.00039196255966
vn 0.97189062833786 0.23543059825897 -0.00099967012648
vn 0.99588006734848 -0.09064888954163 -0.00237749470398
vn 0.99588131904602 -0.09064902365208 -0.00178442825563
vn 0 0 1
vn -0.9935040473938 -0.11379217356443 0.00100178748835
vn -0.98540395498276 -0.17022579908371 0.00149860989768
vn -0.9935000538826 -0.11379239708185 0.00299234548584
vn -0.9935045838356 -0.11379189044237 0
vn -0.97410279512405 -0.22610554099083 0
# 15 normals

vt 0.27832433581352 0.34873580932617 0
vt 0.35625219345093 0.34873580932617 0
vt 0.35625219345093 0.16969609260559 0
vt 0.27832433581352 0.16969609260559 0
vt 0.9066424369812 0.99208158254623 0
vt 0.9066424369812 0.50793713331223 0
vt 0.83593380451202 0.50793713331223 0
vt 0.83593380451202 0.99208158254623 0
vt 0.75012582540512 0.75487434864044 0
vt 0.82083451747894 0.75487434864044 0
vt 0.82083451747894 0.27072989940643 0
vt 0.75012582540512 0.27072989940643 0
vt 0.17825154960155 0.99208158254623 0
vt 0.17825154960155 0.50789970159531 0
vt 0.00754964491352 0.50789970159531 0
vt 0.00754964491352 0.99208158254623 0
vt 0.44927936792374 0.34873580932617 0
vt 0.44927936792374 0.16969609260559 0
vt 0.37135148048401 0.16969609260559 0
vt 0.37135148048401 0.34873580932617 0
vt 0.99245035648346 0.99208158254623 0
vt 0.99245035648346 0.50793713331223 0
vt 0.92174172401428 0.50793713331223 0
vt 0.92174172401428 0.99208158254623 0
vt 0.83593380451202 0.49210035800934 0
vt 0.9066424369812 0.49210035800934 0
vt 0.9066424369812 0.00795590877533 0
vt 0.83593380451202 0.00795590877533 0
vt 0.65207362174988 0.8482511639595 0
vt 0.82083451747894 0.8482511639595 0
vt 0.82083451747894 0.77071118354797 0
vt 0.65207362174988 0.77071118354797 0
vt 0.92174172401428 0.49210035800934 0
vt 0.9221813082695 0.1017986536026 0
vt 0.92174172401428 0.02425861358643 0
vt 0.92174172401428 0.00791847705841 0
vt 0.46437865495682 0.33239567279816 0
vt 0.4662726521492 0.34873580932617 0
vt 0.63503354787827 0.34873580932617 0
vt 0.63508057594299 0.33239567279816 0
vt 0.93728059530258 0.00791847705841 0
vt 0.93728059530258 0.02425861358643 0
vt 0.9377201795578 0.1017986536026 0
vt 0.93728059530258 0.49210035800934 0
vt 0.36405274271965 0.99208158254623 0
vt 0.36400571465492 0.6017798781395 0
vt 0.19524484872818 0.6017798781395 0
vt 0.19335083663464 0.99208158254623 0
vt 0.37915202975273 0.8482511639595 0
vt 0.63508057594299 0.8482511639595 0
vt 0.63508057594299 0.77071118354797 0
vt 0.37915202975273 0.77071118354797 0
vt 0.46437865495682 0.54157656431198 0
vt 0.72030717134476 0.54157656431198 0
vt 0.72030717134476 0.3645726442337 0
vt 0.46437865495682 0.3645726442337 0
vt 0.44927936792374 0.3645726442337 0
vt 0.19335083663464 0.3645726442337 0
vt 0.19335083663464 0.44211268424988 0
vt 0.44883978366852 0.44211268424988 0
vt 0.46481823921204 0.73838979005814 0
vt 0.72030717134476 0.73838979005814 0
vt 0.72030717134476 0.56138586997986 0
vt 0.46481823921204 0.56138586997986 0
vt 0.17631052434444 0.34823250770569 0
vt 0.17820428311825 0.34823250770569 0
vt 0.17820428311825 0.27069246768951 0
vt 0.17631052434444 0.27069246768951 0
vt 0.46437865495682 0.54356282949448 0
vt 0.72030717134476 0.54356282949448 0
vt 0.65017986297607 0.77071118354797 0
vt 0.65017986297607 0.8482511639595 0
vt 0.72030717134476 0.55939966440201 0
vt 0.46437865495682 0.55939966440201 0
vt 0.00754964491352 0.34823250770569 0
vt 0.00754964491352 0.49206292629242 0
vt 0.17631052434444 0.49206292629242 0
vt 0.65207362174988 0.99208158254623 0
vt 0.82083451747894 0.99208158254623 0
vt 0.19335083663464 0.58594304323196 0
vt 0.44883978366852 0.58594304323196 0
vt 0.17820428311825 0.49206292629242 0
vt 0.37915202975273 0.99208158254623 0
vt 0.63508057594299 0.99208158254623 0
vt 0.65017986297607 0.99208158254623 0
# 85 texture coordinates

o hall
usemtl Plane.1
f 1/1/1 2/2/1 4/3/1 3/4/1
f 5/5/2 6/6/2 8/7/2 7/8/2
f 9/9/3 11/10/3 12/11/3 10/12/3
f 13/13/4 14/14/4 16/15/4 15/16/4
f 17/17/1 19/18/1 20/19/1 18/20/1
f 21/21/3 22/22/3 24/23/3 23/24/3
f 25/25/2 27/26/2 28/27/2 26/28/2
f 37/29/5 39/30/5 40/31/5 38/32/5
f 29/33/6 33/34/6 34/35/7 30/36/7
f 30/37/7 34/38/7 36/39/8 32/40/8
f 32/41/8 36/42/8 35/43/9 31/44/9
f 31/45/9 35/46/9 33/47/6 29/48/6
f 41/49/2 43/50/2 44/51/2 42/52/2
f 34/53/1 38/54/1 40/55/1 36/56/1
f 36/57/3 40/58/3 39/59/3 35/60/3
f 46/61/10 48/62/10 47/63/10 45/64/10
f 33/65/11 41/66/12 42/67/13 34/68/13
f 34/53/1 42/69/1 44/70/1 38/54/1
f 38/32/5 44/71/5 43/72/5 37/29/5
f 47/63/10 50/73/10 49/74/10 45/64/10
f 35/75/4 46/76/4 45/77/14 33/65/11
f 37/29/5 47/78/5 48/79/5 39/30/5
f 39/59/3 48/80/3 46/81/3 35/60/3
f 33/65/11 45/77/14 49/82/15 41/66/12
f 41/49/2 49/83/2 50/84/2 43/50/2
f 43/72/5 50/85/5 47/78/5 37/29/5

