# WaveFront *.obj file (generated by CINEMA 4D)

mtllib ./office.mtl

v -1958.62646484375 11.28867626190186 946.9404296875
v -1958.62646484375 626.2509765625 946.9404296875
v 1958.62646484375 11.28867626190186 946.9404296875
v 1958.62646484375 626.2509765625 946.9404296875
v 1953.94287109375 11.28867626190186 2905.56689453125
v 1953.94287109375 626.2509765625 2905.56689453125
v 1958.62646484375 11.28867626190186 4864.193359375
v 1958.62646484375 626.2509765625 4864.193359375
v -1958.62646484375 11.28867626190186 4864.193359375
v -1958.62646484375 626.2509765625 4864.193359375
v -1958.62646484375 11.28867626190186 2905.56689453125
v -1958.62646484375 626.2509765625 2905.56689453125
v -1958.62646484375 10.47739887237549 1492.2105712890625
v -1958.62646484375 560.976318359375 1492.2105712890625
v -1958.62646484375 10.47739887237549 2360.296630859375
v -1958.62646484375 560.976318359375 2360.296630859375
v -2367.913818359375 10.47739887237549 1492.2105712890625
v -2367.913818359375 560.976318359375 1492.2105712890625
v -2367.913818359375 10.47739887237549 2360.296630859375
v -2367.913818359375 560.976318359375 2360.296630859375
v -1958.62646484375 11.75972938537598 4517.15478515625
v -1958.62646484375 477.1221923828125 4517.15478515625
v -1958.62646484375 11.75972938537598 4224.2744140625
v -1958.62646484375 477.1221923828125 4224.2744140625
v -2720.18798828125 11.75972938537598 4517.15478515625
v -2720.18798828125 477.1221923828125 4517.15478515625
v -2720.18798828125 11.75972938537598 4224.2744140625
v -2720.18798828125 477.1221923828125 4224.2744140625
v -1958.62646484375 11.75972938537598 3274.274658203125
v -1958.62646484375 477.1221923828125 3274.274658203125
v -2720.18798828125 11.75972938537598 3274.274658203125
v -2720.18798828125 477.1221923828125 3274.274658203125
v -1958.62646484375 11.75972938537598 4866.15478515625
v -1958.62646484375 477.1221923828125 4866.15478515625
v -2720.18798828125 11.75972938537598 4866.15478515625
v -2720.18798828125 477.1221923828125 4866.15478515625
v 1020.9461669921875 47.89906311035156 4864.193359375
v 1020.9461669921875 554.4227294921875 4864.193359375
v -1020.9461669921875 47.89906311035156 4864.193359375
v -1020.9461669921875 554.4227294921875 4864.193359375
v 1020.9461669921875 47.89906311035156 5477.193359375
v 1020.9461669921875 554.4227294921875 5477.193359375
v -1020.9461669921875 47.89906311035156 5477.193359375
v -1020.9461669921875 554.4227294921875 5477.193359375
v -1958.62646484375 625.1221923828125 4517.15478515625
v -1958.62646484375 625.1221923828125 4224.2744140625
v -2720.18798828125 625.1221923828125 4517.15478515625
v -2720.18798828125 625.1221923828125 4224.2744140625
v -1958.62646484375 625.1221923828125 3274.274658203125
v -2720.18798828125 625.1221923828125 3274.274658203125
v -1958.62646484375 625.1221923828125 4866.15478515625
v -2720.18798828125 625.1221923828125 4866.15478515625
v 1953.94287109375 9.01825523376465 4222.3876953125
v 1953.94287109375 477.33612060546875 4222.3876953125
v 1958.62646484375 9.01825523376465 4518.73779296875
v 1958.62646484375 477.33612060546875 4518.73779296875
v 2316.113525390625 9.01825523376465 4222.3876953125
v 2316.113525390625 477.33612060546875 4222.3876953125
v 2316.113525390625 9.01825523376465 4518.73779296875
v 2316.113525390625 477.33612060546875 4518.73779296875
v 1958.62646484375 626.33612060546875 4222.3876953125
v 1958.62646484375 626.33612060546875 4518.73779296875
v 2316.113525390625 626.33612060546875 4222.3876953125
v 2316.113525390625 626.33612060546875 4518.73779296875
v 1958.62646484375 9.01825523376465 2171.478271484375
v 1958.62646484375 477.33612060546875 2171.478271484375
v 2316.113525390625 9.01825523376465 2171.478271484375
v 2316.113525390625 477.33612060546875 2171.478271484375
v 1958.62646484375 626.33612060546875 2171.478271484375
v 2316.113525390625 626.33612060546875 2171.478271484375
v -1958.62646484375 36.47739791870117 1492.2105712890625
v -1958.62646484375 36.47739791870117 2360.296630859375
v -2367.913818359375 36.47739791870117 1492.2105712890625
v -2367.913818359375 36.47739791870117 2360.296630859375
# 74 vertices

vn 0 1 0
vn -0.99999713897705 0 -0.00239125755616
vn -0.99999928474426 0 -0.00119562959298
vn -0.99975085258484 0.02221026830375 0.00221886555664
vn -1 0 0
vn 0 0 -1
vn 1 0 0
vn 0 -1 0
vn 0 0 1
vn -0.99943459033966 0.03331739455462 0.00452480232343
vn 0.993332862854 0.11502679437399 -0.00765578681603
vn 0.99994403123856 -0.01047452073544 -0.00149230018724
vn 0.99987083673477 -0.01571134850383 -0.00338023062795
vn 0.99984532594681 -0.01571142859757 -0.00790236424655
vn 0.99999737739563 0 0.00228366092779
vn 0.99996769428253 -0.00785571802408 0.00171286961995
vn 0.99987590312958 -0.01571094989777 0.00114197214134
# 17 normals

vt 0.47932517528534 0.99126386642456 0
vt 0.93188232183456 0.99126386642456 0
vt 0.93242400884628 0.76486891508102 0
vt 0.47932517528534 0.76486891508102 0
vt 0.46184098720551 0.12119960784912 0
vt 0.23529154062271 0.12119960784912 0
vt 0.23529154062271 0.19228219985962 0
vt 0.46184098720551 0.19228219985962 0
vt 0.55495285987854 0.2985817193985 0
vt 0.52067482471466 0.2985817193985 0
vt 0.52067482471466 0.35271394252777 0
vt 0.55495285987854 0.35271394252777 0
vt 0.71550577878952 0.12093710899353 0
vt 0.47932517528534 0.12093710899353 0
vt 0.47932517528534 0.17948544025421 0
vt 0.71550577878952 0.17948544025421 0
vt 0.15250293910503 0.03256714344025 0
vt 0.11862623691559 0.03256714344025 0
vt 0.11862623691559 0.08635771274567 0
vt 0.15250293910503 0.08635771274567 0
vt 0.51237750053406 0.03983342647552 0
vt 0.41196811199188 0.03983342647552 0
vt 0.41196811199188 0.10346484184265 0
vt 0.51237750053406 0.10346484184265 0
vt 0.00874210707843 0.99126386642456 0
vt 0.46184095740318 0.99126386642456 0
vt 0.46129921078682 0.76486891508102 0
vt 0.00874210707843 0.76486891508102 0
vt 0.46184095740318 0.53847402334213 0
vt 0.00874210707843 0.53847402334213 0
vt 0.00874210707843 0.52100169658661 0
vt 0.46184095740318 0.52100169658661 0
vt 0.46129921078682 0.29460680484772 0
vt 0.00874210707843 0.29460680484772 0
vt 0.70587462186813 0.676313996315 0
vt 0.6428045630455 0.67622023820877 0
vt 0.6428045630455 0.7398516535759 0
vt 0.70587462186813 0.74739664793015 0
vt 0.54239523410797 0.7398516535759 0
vt 0.47932517528534 0.74739664793015 0
vt 0.54239523410797 0.67622023820877 0
vt 0.47932517528534 0.676313996315 0
vt 0.23529154062271 0.01509487628937 0
vt 0.17222149670124 0.01500105857849 0
vt 0.07181214541197 0.01500105857849 0
vt 0.00874210707843 0.01509487628937 0
vt 0.9625740647316 0.01856112480164 0
vt 0.91523283720016 0.01856112480164 0
vt 0.91523283720016 0.08219254016876 0
vt 0.9625740647316 0.08219254016876 0
vt 0.78033125400543 0.07914459705353 0
vt 0.73298996686935 0.07914459705353 0
vt 0.73298996686935 0.17948544025421 0
vt 0.78033125400543 0.17948544025421 0
vt 0.91523283720016 0.16329622268677 0
vt 0.9625740647316 0.16329622268677 0
vt 0.9625740647316 0.09966480731964 0
vt 0.91523283720016 0.09966480731964 0
vt 0.9625740647316 0.18076848983765 0
vt 0.91523283720016 0.18076848983765 0
vt 0.91523283720016 0.28110945224762 0
vt 0.9625740647316 0.28110945224762 0
vt 0.93242406845093 0.676313996315 0
vt 0.89228296279907 0.67636847496033 0
vt 0.89228296279907 0.73015904426575 0
vt 0.93242406845093 0.74739664793015 0
vt 0.85840624570847 0.73015904426575 0
vt 0.85840624570847 0.67636847496033 0
vt 0.89774858951569 0.00873613357544 0
vt 0.80966067314148 0.00873613357544 0
vt 0.80966067314148 0.06252682209015 0
vt 0.89774858951569 0.06252682209015 0
vt 0.89774858951569 0.137446641922 0
vt 0.80966067314148 0.137446641922 0
vt 0.80966067314148 0.17130017280579 0
vt 0.89774858951569 0.17130017280579 0
vt 0.62741786241531 0.08635771274567 0
vt 0.71550577878952 0.08635771274567 0
vt 0.71550577878952 0.03256714344025 0
vt 0.62741786241531 0.03256714344025 0
vt 0.89774858951569 0.40839087963104 0
vt 0.80966067314148 0.40839087963104 0
vt 0.80966067314148 0.44224452972412 0
vt 0.89774858951569 0.44224452972412 0
vt 0.28459978103638 0.08635771274567 0
vt 0.39448389410973 0.08635771274567 0
vt 0.39448389410973 0.03256714344025 0
vt 0.28459978103638 0.03256714344025 0
vt 0.89774858951569 0.2985817193985 0
vt 0.80966067314148 0.2985817193985 0
vt 0.00874210707843 0.03256714344025 0
vt 0.00874210707843 0.08635771274567 0
vt 0.80966067314148 0.28110945224762 0
vt 0.89774858951569 0.28110945224762 0
vt 0.25072306394577 0.03256714344025 0
vt 0.21035511791706 0.03256714344025 0
vt 0.21035511791706 0.08635771274567 0
vt 0.25072306394577 0.08635771274567 0
vt 0.89774858951569 0.09710621833801 0
vt 0.80966067314148 0.09710621833801 0
vt 0.1928709000349 0.08635771274567 0
vt 0.1928709000349 0.03256714344025 0
vt 0.80966067314148 0.48258495330811 0
vt 0.89774858951569 0.48258495330811 0
vt 0.93242406845093 0.58766531944275 0
vt 0.8239648938179 0.59189707040787 0
vt 0.8239648938179 0.65044540166855 0
vt 0.93242406845093 0.65874791145325 0
vt 0.58778434991837 0.65044540166855 0
vt 0.47932517528534 0.65874791145325 0
vt 0.58778434991837 0.59189707040787 0
vt 0.47932517528534 0.58766531944275 0
vt 0.60993361473084 0.04491651058197 0
vt 0.53902947902679 0.04491651058197 0
vt 0.53902947902679 0.10346484184265 0
vt 0.60993361473084 0.10346484184265 0
vt 0.75685542821884 0.45826470851898 0
vt 0.75685542821884 0.38740885257721 0
vt 0.52067482471466 0.38740885257721 0
vt 0.52067482471466 0.45826470851898 0
vt 0.80966067314148 0.55860555171967 0
vt 0.88056486845016 0.55860555171967 0
vt 0.88056486845016 0.50005722045898 0
vt 0.80966067314148 0.50005722045898 0
vt 0.52067482471466 0.47573697566986 0
vt 0.52067482471466 0.54659283161163 0
vt 0.75685542821884 0.54659283161163 0
vt 0.75685542821884 0.47573697566986 0
vt 0.25072306394577 0.10346484184265 0
vt 0.28459978103638 0.10346484184265 0
vt 0.11862623691559 0.10346484184265 0
vt 0.15250293910503 0.10346484184265 0
vt 0.39448389410973 0.10346484184265 0
vt 0.62741786241531 0.10346484184265 0
vt 0.71550577878952 0.10346484184265 0
vt 0.00874210707843 0.10346484184265 0
vt 0.1928709000349 0.10346484184265 0
vt 0.80966067314148 0.07963395118713 0
vt 0.89774858951569 0.07963395118713 0
vt 0.21035511791706 0.10346484184265 0
vt 0.08297814428806 0.12093710899353 0
vt 0.08297814428806 0.1750693321228 0
vt 0.0487001016736 0.1750693321228 0
vt 0.00874210707843 0.19228219985962 0
vt 0.0487001016736 0.12093710899353 0
vt 0.00874210707843 0.12119960784912 0
vt 0.46184095740318 0.48107099533081 0
vt 0.46129921078682 0.44681632518768 0
vt 0.99125790596008 0.91990894079208 0
vt 0.94990825653076 0.91990894079208 0
vt 0.94990825653076 0.97404116392136 0
vt 0.99125790596008 0.97404116392136 0
vt 0.91523283720016 0.33283638954163 0
vt 0.95658248662949 0.33283638954163 0
vt 0.95658248662949 0.2985817193985 0
vt 0.91523283720016 0.2985817193985 0
vt 0.94990825653076 0.885213971138 0
vt 0.99125790596008 0.885213971138 0
vt 0.99125790596008 0.83108174800873 0
vt 0.94990825653076 0.83108174800873 0
vt 0.50319063663483 0.48107099533081 0
vt 0.50319063663483 0.44681632518768 0
vt 0.75789844989777 0.26388669013977 0
vt 0.75789844989777 0.28110945224762 0
vt 0.79217648506165 0.28110945224762 0
vt 0.79217648506165 0.26388669013977 0
vt 0.94990825653076 0.90243661403656 0
vt 0.99125790596008 0.90243661403656 0
vt 0.52067482471466 0.36993658542633 0
vt 0.55495285987854 0.36993658542633 0
vt 0.94990825653076 0.99126386642456 0
vt 0.99125790596008 0.99126386642456 0
vt 0.75789844989777 0.2097544670105 0
vt 0.52067482471466 0.2097544670105 0
vt 0.52067482471466 0.26388669013977 0
vt 0.79217648506165 0.35271394252777 0
vt 0.79217648506165 0.2985817193985 0
vt 0.50319063663483 0.2097544670105 0
vt 0.46184095740318 0.2097544670105 0
vt 0.52067482471466 0.28110945224762 0
vt 0.91523283720016 0.56989818811417 0
vt 0.95658248662949 0.56989818811417 0
vt 0.79217648506165 0.36993658542633 0
vt 0.47932517528534 0.56718772649765 0
vt 0.47932517528534 0.57019299268723 0
vt 0.57973456382751 0.57019299268723 0
vt 0.57973456382751 0.56718772649765 0
vt 0.73298996686935 0.05866706371307 0
vt 0.73298996686935 0.06167232990265 0
vt 0.78033125400543 0.06167232990265 0
vt 0.78033125400543 0.05866706371307 0
vt 0.59721875190735 0.56718772649765 0
vt 0.59721875190735 0.57019299268723 0
vt 0.69762814044952 0.57019299268723 0
vt 0.69762814044952 0.56718772649765 0
vt 0.71511232852936 0.56718772649765 0
vt 0.71511232852936 0.57019299268723 0
vt 0.76245355606079 0.57019299268723 0
vt 0.76245355606079 0.56718772649765 0
# 199 texture coordinates

o restaurant
usemtl Cube
f 11/1/1 5/2/1 3/3/1 1/4/1
f 3/5/2 5/6/3 6/7/4 4/8/2
f 57/9/5 59/10/5 60/11/5 58/12/5
f 41/13/6 43/14/6 44/15/6 42/16/6
f 25/17/7 27/18/7 28/19/7 26/20/7
f 19/21/7 17/22/7 18/23/7 20/24/7
f 2/25/8 4/26/8 6/27/8 12/28/8
f 12/28/8 6/27/8 8/29/8 10/30/8
f 9/31/1 7/32/1 5/33/1 11/34/1
f 11/35/7 15/36/7 16/37/7 12/38/7
f 12/38/7 16/37/7 14/39/7 2/40/7
f 2/40/7 14/39/7 13/41/7 1/42/7
f 1/43/5 13/44/5 15/45/5 11/46/5
f 15/47/6 19/48/6 20/49/6 16/50/6
f 16/51/8 20/52/8 18/53/8 14/54/8
f 14/55/9 18/56/9 17/57/9 13/58/9
f 71/59/1 73/60/1 74/61/1 72/62/1
f 9/63/7 21/64/7 22/65/7 10/66/7
f 10/66/7 22/65/7 24/67/7 12/38/7
f 12/38/7 24/67/7 23/68/7 11/35/7
f 11/35/7 23/68/7 21/64/7 9/63/7
f 33/69/6 35/70/6 36/71/6 34/72/6
f 45/73/8 47/74/8 48/75/8 46/76/8
f 30/77/9 32/78/9 31/79/9 29/80/9
f 23/81/1 27/82/1 25/83/1 21/84/1
f 24/85/5 30/86/5 29/87/5 23/88/5
f 23/81/1 29/89/1 31/90/1 27/82/1
f 27/18/7 31/91/7 32/92/7 28/19/7
f 48/75/8 50/93/8 49/94/8 46/76/8
f 21/95/5 33/96/5 34/97/5 22/98/5
f 45/73/8 51/99/8 52/100/8 47/74/8
f 26/20/7 36/101/7 35/102/7 25/17/7
f 25/83/1 35/103/1 33/104/1 21/84/1
f 7/105/6 37/106/6 38/107/6 8/108/6
f 8/108/6 38/107/6 40/109/6 10/110/6
f 10/110/6 40/109/6 39/111/6 9/112/6
f 9/112/6 39/111/6 37/106/6 7/105/6
f 37/113/5 41/114/5 42/115/5 38/116/5
f 38/117/8 42/118/8 44/119/8 40/120/8
f 40/121/7 44/122/7 43/123/7 39/124/7
f 39/125/1 43/126/1 41/127/1 37/128/1
f 22/98/5 45/129/5 46/130/5 24/85/5
f 28/19/7 48/131/7 47/132/7 26/20/7
f 24/85/5 46/130/5 49/133/5 30/86/5
f 30/77/9 49/134/9 50/135/9 32/78/9
f 32/92/7 50/136/7 48/131/7 28/19/7
f 26/20/7 47/132/7 52/137/7 36/101/7
f 36/71/6 52/138/6 51/139/6 34/72/6
f 34/97/5 51/140/5 45/129/5 22/98/5
f 5/6/3 53/141/5 54/142/10 6/7/4
f 6/7/4 54/142/10 56/143/10 8/144/10
f 8/144/10 56/143/10 55/145/5 7/146/5
f 7/32/11 55/147/11 53/148/11 5/33/11
f 65/149/9 67/150/9 68/151/9 66/152/9
f 61/153/8 63/154/8 64/155/8 62/156/8
f 56/157/6 60/158/6 59/159/6 55/160/6
f 55/147/1 59/161/1 57/162/1 53/148/1
f 54/163/12 61/164/13 62/165/14 56/166/14
f 56/157/6 62/167/6 64/168/6 60/158/6
f 60/11/5 64/169/5 63/170/5 58/12/5
f 68/151/9 70/171/9 69/172/9 66/152/9
f 53/173/15 65/174/15 66/175/16 54/163/12
f 58/12/5 68/176/5 67/177/5 57/9/5
f 57/162/1 67/178/1 65/179/1 53/148/1
f 54/163/12 66/175/16 69/180/17 61/164/13
f 61/153/8 69/181/8 70/182/8 63/154/8
f 63/170/5 70/183/5 68/176/5 58/12/5
f 13/184/7 71/185/7 72/186/7 15/187/7
f 15/188/9 72/189/9 74/190/9 19/191/9
f 19/192/5 74/193/5 73/194/5 17/195/5
f 17/196/6 73/197/6 71/198/6 13/199/6

