# WaveFront *.obj file (generated by CINEMA 4D)

mtllib ./table.mtl

v -469.86129760742188 109.22478485107422 -166.56071472167969
v -469.86129760742188 141.90182495117188 -166.56071472167969
v -156.62043762207031 109.22478485107422 -166.56071472167969
v -156.62043762207031 141.90182495117188 -166.56071472167969
v 156.62043762207031 109.22478485107422 -166.56071472167969
v 156.62043762207031 141.90182495117188 -166.56071472167969
v 469.86129760742188 109.22478485107422 -166.56071472167969
v 469.86129760742188 141.90182495117188 -166.56071472167969
v 469.86129760742188 109.22478485107422 0
v 469.86129760742188 141.90182495117188 0
v 469.86129760742188 109.22478485107422 166.56071472167969
v 469.86129760742188 141.90182495117188 166.56071472167969
v 156.62043762207031 109.22478485107422 166.56071472167969
v 156.62043762207031 141.90182495117188 166.56071472167969
v -156.62043762207031 109.22478485107422 166.56071472167969
v -156.62043762207031 141.90182495117188 166.56071472167969
v -469.86129760742188 109.22478485107422 166.56071472167969
v -469.86129760742188 141.90182495117188 166.56071472167969
v -469.86129760742188 109.22478485107422 0
v -469.86129760742188 141.90182495117188 0
v -156.62043762207031 141.90182495117188 0
v 156.62043762207031 141.90182495117188 0
v -156.62043762207031 109.22478485107422 0
v 156.62043762207031 109.22478485107422 0
v 201.92042541503906 109.22478485107422 -121.26071166992188
v 424.56130981445312 109.22478485107422 -121.26071166992188
v 424.56130981445312 109.22478485107422 -45.29999923706055
v 201.92042541503906 109.22478485107422 -45.29999923706055
v 426.56130981445312 109.22478485107422 43.29999923706055
v 426.56130981445312 109.22478485107422 123.26071166992188
v 199.92042541503906 109.22478485107422 123.26071166992188
v 199.92042541503906 109.22478485107422 43.29999923706055
v -201.8204345703125 109.22478485107422 121.36071014404297
v -424.66128540039062 109.22478485107422 121.36071014404297
v -424.66128540039062 109.22478485107422 45.20000076293945
v -201.8204345703125 109.22478485107422 45.20000076293945
v -423.9613037109375 109.22478485107422 -120.66070556640625
v -202.52043151855469 109.22478485107422 -120.66070556640625
v -423.9613037109375 109.22478485107422 -45.90000152587891
v -202.52043151855469 109.22478485107422 -45.90000152587891
v -201.8204345703125 -51.77521896362305 121.36071014404297
v -424.66128540039062 -51.77521896362305 121.36071014404297
v -424.66128540039062 -51.77521896362305 45.20000076293945
v -201.8204345703125 -51.77521896362305 45.20000076293945
v 426.56130981445312 -51.77521896362305 43.29999923706055
v 426.56130981445312 -51.77521896362305 123.26071166992188
v 199.92042541503906 -51.77521896362305 123.26071166992188
v 199.92042541503906 -51.77521896362305 43.29999923706055
v -423.9613037109375 -51.77521896362305 -120.66070556640625
v -202.52043151855469 -51.77521896362305 -120.66070556640625
v -423.9613037109375 -51.77521896362305 -45.90000152587891
v -202.52043151855469 -51.77521896362305 -45.90000152587891
v 201.92042541503906 -51.77521896362305 -121.26071166992188
v 424.56130981445312 -51.77521896362305 -121.26071166992188
v 424.56130981445312 -51.77521896362305 -45.29999923706055
v 201.92042541503906 -51.77521896362305 -45.29999923706055
# 56 vertices

vn 0 0 -1
vn 1 0 0
vn 0 0 1
vn -1 0 0
vn 0 1 0
vn 0 -1 0
# 6 normals

vt 0 0 0
vt 0 1 0
vt 0.33333334326744 1 0
vt 0.33333334326744 0 0
vt 0.66666668653488 1 0
vt 0.66666668653488 0 0
vt 1 1 0
vt 1 0 0
vt 0.5 1 0
vt 0.5 0 0
vt 0 0.5 0
vt 0.33333334326744 0.5 0
vt 0.66666668653488 0.5 0
vt 1 0.5 0
vt 0.0574358664453 0.08615386486053 0
vt 0.0574358664453 0.41384625434875 0
vt 0.27589747309685 0.41384625434875 0
vt 0.27589747309685 0.08615386486053 0
vt 0.7216882109642 0.08253228664398 0
vt 0.7216882109642 0.41746771335602 0
vt 0.94497847557068 0.41746771335602 0
vt 0.94497847557068 0.08253228664398 0
vt 0.05832535773516 0.58748805522919 0
vt 0.05832535773516 0.91251194477081 0
vt 0.27500799298286 0.91251194477081 0
vt 0.27500799298286 0.58748805522919 0
vt 0.72422963380814 0.58634442090988 0
vt 0.72422963380814 0.91365563869476 0
vt 0.94243705272675 0.91365563869476 0
vt 0.94243705272675 0.58634442090988 0
# 30 texture coordinates

o Cube
usemtl default
f 1/1/1 2/2/1 4/3/1 3/4/1
f 3/4/1 4/3/1 6/5/1 5/6/1
f 5/6/1 6/5/1 8/7/1 7/8/1
f 7/1/2 8/2/2 10/9/2 9/10/2
f 9/10/2 10/9/2 12/7/2 11/8/2
f 11/1/3 12/2/3 14/3/3 13/4/3
f 13/4/3 14/3/3 16/5/3 15/6/3
f 15/6/3 16/5/3 18/7/3 17/8/3
f 17/1/4 18/2/4 20/9/4 19/10/4
f 19/10/4 20/9/4 2/7/4 1/8/4
f 2/1/5 20/11/5 21/12/5 4/4/5
f 4/4/5 21/12/5 22/13/5 6/6/5
f 6/6/5 22/13/5 10/14/5 8/8/5
f 20/11/5 18/2/5 16/3/5 21/12/5
f 21/12/5 16/3/5 14/5/5 22/13/5
f 22/13/5 14/5/5 12/7/5 10/14/5
f 42/15/6 43/16/6 44/17/6 41/18/6
f 15/4/6 23/12/6 24/13/6 13/6/6
f 47/19/6 48/20/6 45/21/6 46/22/6
f 51/23/6 49/24/6 50/25/6 52/26/6
f 23/12/6 3/3/6 5/5/6 24/13/6
f 56/27/6 53/28/6 54/29/6 55/30/6
f 24/13/6 28/27/6 27/30/6 9/14/6
f 9/14/6 27/30/6 26/29/6 7/7/6
f 7/7/6 26/29/6 25/28/6 5/5/6
f 5/5/6 25/28/6 28/27/6 24/13/6
f 13/6/6 31/19/6 30/22/6 11/8/6
f 11/8/6 30/22/6 29/21/6 9/14/6
f 9/14/6 29/21/6 32/20/6 24/13/6
f 24/13/6 32/20/6 31/19/6 13/6/6
f 17/1/6 34/15/6 33/18/6 15/4/6
f 15/4/6 33/18/6 36/17/6 23/12/6
f 23/12/6 36/17/6 35/16/6 19/11/6
f 19/11/6 35/16/6 34/15/6 17/1/6
f 19/11/6 39/23/6 40/26/6 23/12/6
f 23/12/6 40/26/6 38/25/6 3/3/6
f 3/3/6 38/25/6 37/24/6 1/2/6
f 1/2/6 37/24/6 39/23/6 19/11/6
f 34/15/3 42/15/3 41/18/3 33/18/3
f 33/18/2 41/18/2 44/17/2 36/17/2
f 36/17/1 44/17/1 43/16/1 35/16/1
f 35/16/4 43/16/4 42/15/4 34/15/4
f 31/19/3 47/19/3 46/22/3 30/22/3
f 30/22/2 46/22/2 45/21/2 29/21/2
f 29/21/1 45/21/1 48/20/1 32/20/1
f 32/20/4 48/20/4 47/19/4 31/19/4
f 39/23/3 51/23/3 52/26/3 40/26/3
f 40/26/2 52/26/2 50/25/2 38/25/2
f 38/25/1 50/25/1 49/24/1 37/24/1
f 37/24/4 49/24/4 51/23/4 39/23/4
f 28/27/3 56/27/3 55/30/3 27/30/3
f 27/30/2 55/30/2 54/29/2 26/29/2
f 26/29/1 54/29/1 53/28/1 25/28/1
f 25/28/4 53/28/4 56/27/4 28/27/4

